<?xml version="1.0" encoding="UTF-8"?><svg version="1.1" viewBox="0 0 24 24" xmlns="http://www.w3.org/2000/svg" xmlns:xlink="http://www.w3.org/1999/xlink"><!--Generated by IJSVG (https://github.com/iconjar/IJSVG)--><g stroke-linecap="round" stroke-width="1.5" stroke="#113558" fill="none" stroke-linejoin="round"><path d="M16.5,19.274h-9h-6.55671e-08c-0.828427,-3.62117e-08 -1.5,-0.671573 -1.5,-1.5c0,0 0,0 0,0v-6h12v6v6.55671e-08c0,0.828427 -0.671573,1.5 -1.5,1.5c-2.03192e-08,0 -4.52479e-08,0 -6.55671e-08,0Z"></path><path d="M12,2.774v0l-2.62268e-07,5.32907e-15c-3.31371,1.44847e-07 -6,2.68629 -6,6c0,0 0,1.77636e-15 0,1.77636e-15h12l7.10543e-15,-2.62268e-07c0,-3.31371 -2.68629,-6 -6,-6c-8.12766e-08,0 -1.80992e-07,2.66454e-15 -2.62268e-07,6.21725e-15Z"></path><path d="M3,16.274v-1.5l3.37508e-14,4.52987e-07c-2.50178e-07,-1.65685 1.34315,-3 3,-3h12l-1.31134e-07,3.55271e-15c1.65685,-7.24234e-08 3,1.34315 3,3v1.5"></path><path d="M7.5,19.27v3.13"></path><path d="M16.5,19.27v3.13"></path><path d="M7.95,4.35l-2.7,-2.7"></path><path d="M16.05,4.35l2.7,-2.7"></path></g></svg>