<svg width="191" height="309" viewBox="0 0 191 309" fill="none" xmlns="http://www.w3.org/2000/svg">
<rect x="1" y="1" width="189" height="307" rx="3" fill="#F2F2F2"/>
<path fill-rule="evenodd" clip-rule="evenodd" d="M0.5 4.50001C0.5 2.29089 2.29084 0.5 4.5 0.5H186.5C188.709 0.5 190.5 2.29087 190.5 4.5V215V304.5C190.5 306.709 188.709 308.5 186.5 308.5H159H131H103H74H55.3333H4.49999C2.29084 308.5 0.5 306.709 0.5 304.5V4.50001ZM100.5 303.5V199.5H78.8333C78.0411 199.5 76.5 200.537 76.5 203.056V215V303.5H100.5ZM105.5 199.5V303.5H128.5V215V203.056C128.5 200.447 126.963 199.5 126.333 199.5H105.5ZM133.5 212.5V203.056C133.5 198.975 130.858 194.5 126.333 194.5H103H78.8333C74.2868 194.5 71.5 198.886 71.5 203.056V212.5H50.6667C48.4417 212.5 46.596 213.679 45.3853 215.253C44.1766 216.824 43.5 218.888 43.5 221.067V293.867C43.5 297.499 44.5647 300.888 46.4056 303.5H5.5V157.916H185.5V212.5H159H133.5ZM133.5 217.5V303.5H156.5V217.5H133.5ZM50.6667 217.5H71.5V303.5H55.3333C53.6923 303.5 52.038 302.642 50.7152 300.922C49.3904 299.2 48.5 296.714 48.5 293.867V221.067C48.5 219.895 48.868 218.926 49.3484 218.301C49.8267 217.679 50.3143 217.5 50.6667 217.5ZM161.5 217.5V303.5H185.5V217.5H161.5ZM5.5 5.5V152.916H185.5V5.5H5.5Z" fill="#D4AA7D"/>
<path d="M82.6813 53.072L77.4673 69H80.9653L82.1973 65.128H87.4993L88.8193 69H92.5373L86.9053 53.072H82.6813ZM86.7953 62.422H82.7693L84.7273 56.262H84.8153L86.7953 62.422Z" fill="#113558"/>
<path d="M104.417 61.168C104.417 58.55 103.317 57.296 100.787 57.296C99.2249 57.296 97.9709 57.912 97.1349 58.682L96.9589 57.538L94.0109 57.538V69H97.3329V60.882C97.7729 60.486 98.6749 59.98 99.5769 59.98C100.611 59.98 101.095 60.508 101.095 61.74V69H104.417V61.168Z" fill="#113558"/>
<path d="M109.529 69.242L109.177 70.144C108.825 71.024 108.319 71.376 107.549 71.376C107.065 71.376 106.427 71.222 105.811 71.024L105.569 73.422C106.053 73.664 107.175 73.906 108.077 73.906C110.409 73.906 111.421 72.828 112.389 70.122C113.797 66.294 115.425 61.784 116.943 57.538H113.533L111.223 65.524H111.157L108.759 57.538H105.173L109.529 69.242Z" fill="#113558"/>
<path d="M35.6658 90.296C33.1138 90.296 30.8918 91.506 30.8918 94.036C30.8918 96.83 33.0258 97.292 35.0278 97.666C36.3698 97.908 37.1618 98.04 37.1618 98.898C37.1618 99.602 36.6338 99.976 35.5118 99.976C33.9498 99.976 33.4878 99.118 33.2238 98.238L30.5178 99.118C30.9138 101.01 32.4538 102.264 35.4018 102.264C38.2178 102.264 40.4398 101.01 40.4398 98.392C40.4398 95.686 38.4158 95.246 36.4138 94.894C35.0498 94.652 34.0818 94.476 34.0818 93.64C34.0818 92.98 34.5878 92.628 35.5338 92.628C36.7438 92.628 37.2278 93.222 37.5138 94.19L40.2418 93.332C39.6918 91.418 38.2618 90.296 35.6658 90.296Z" fill="#113558"/>
<path d="M42.2433 98.436C42.2433 100.966 43.4093 102.242 45.7633 102.242C47.3253 102.242 48.6013 101.692 49.4153 100.768L49.6573 102H52.5173V90.538H49.1953V98.656C48.7553 99.052 47.8753 99.558 47.0173 99.558C45.9613 99.558 45.5653 99.008 45.5653 97.776V90.538H42.2433V98.436Z" fill="#113558"/>
<path d="M59.7801 90.296C56.5021 90.296 54.6761 92.1 54.6761 94.542C54.6761 95.994 55.3141 97.05 56.3481 97.644C55.2701 98.414 54.5661 99.052 54.5661 100.196C54.5661 101.142 55.1161 101.802 56.2381 102.132V102.22C54.9841 102.462 54.1701 103.21 54.1701 104.288C54.1701 105.872 55.4901 106.95 59.6921 106.95C63.0581 106.95 65.6761 105.872 65.6761 103.056C65.6761 100.746 64.2681 99.91 61.8261 99.756L58.5701 99.558C57.7341 99.514 57.5361 99.294 57.5361 98.964C57.5361 98.678 57.7561 98.458 57.9541 98.26C58.5921 98.436 59.0981 98.502 59.8681 98.502C62.8161 98.502 64.9061 96.962 64.9061 94.388C64.9061 93.464 64.6201 92.562 63.9601 91.814C64.5981 91.616 65.1701 91.572 65.8521 91.638V89.46C65.5221 89.328 65.2141 89.262 64.9281 89.262C63.8501 89.262 63.2121 90.142 62.8161 91C62.0681 90.494 61.0341 90.296 59.7801 90.296ZM61.8701 94.366C61.8701 95.488 61.0561 96.126 59.8681 96.126C58.4601 96.126 57.8221 95.51 57.8221 94.366C57.8221 93.134 58.7241 92.628 59.9121 92.628C61.1221 92.628 61.8701 93.178 61.8701 94.366ZM62.4421 103.65C62.4421 104.596 61.4301 104.816 59.9561 104.816C58.4161 104.816 57.1621 104.552 57.1621 103.65C57.1621 103.232 57.4261 102.858 57.8441 102.55L61.0341 102.748C62.2221 102.814 62.4421 103.21 62.4421 103.65Z" fill="#113558"/>
<path d="M72.0906 90.296C68.8126 90.296 66.9866 92.1 66.9866 94.542C66.9866 95.994 67.6246 97.05 68.6586 97.644C67.5806 98.414 66.8766 99.052 66.8766 100.196C66.8766 101.142 67.4266 101.802 68.5486 102.132V102.22C67.2946 102.462 66.4806 103.21 66.4806 104.288C66.4806 105.872 67.8006 106.95 72.0026 106.95C75.3686 106.95 77.9866 105.872 77.9866 103.056C77.9866 100.746 76.5786 99.91 74.1366 99.756L70.8806 99.558C70.0446 99.514 69.8466 99.294 69.8466 98.964C69.8466 98.678 70.0666 98.458 70.2646 98.26C70.9026 98.436 71.4086 98.502 72.1786 98.502C75.1266 98.502 77.2166 96.962 77.2166 94.388C77.2166 93.464 76.9306 92.562 76.2706 91.814C76.9086 91.616 77.4806 91.572 78.1626 91.638V89.46C77.8326 89.328 77.5246 89.262 77.2386 89.262C76.1606 89.262 75.5226 90.142 75.1266 91C74.3786 90.494 73.3446 90.296 72.0906 90.296ZM74.1806 94.366C74.1806 95.488 73.3666 96.126 72.1786 96.126C70.7706 96.126 70.1326 95.51 70.1326 94.366C70.1326 93.134 71.0346 92.628 72.2226 92.628C73.4326 92.628 74.1806 93.178 74.1806 94.366ZM74.7526 103.65C74.7526 104.596 73.7406 104.816 72.2666 104.816C70.7266 104.816 69.4726 104.552 69.4726 103.65C69.4726 103.232 69.7366 102.858 70.1546 102.55L73.3446 102.748C74.5326 102.814 74.7526 103.21 74.7526 103.65Z" fill="#113558"/>
<path d="M84.4519 102.264C87.1799 102.264 88.8959 100.878 89.3139 98.744L86.5199 98.062C86.2999 99.03 85.8379 99.69 84.6499 99.69C83.1979 99.69 82.4059 98.986 82.3399 97.094H89.3139C89.3579 96.698 89.3799 95.972 89.3799 95.598C89.3799 92.408 87.9279 90.296 84.4519 90.296C81.3719 90.296 78.8419 92.166 78.8419 96.302C78.8419 99.404 80.2059 102.264 84.4519 102.264ZM82.3839 94.982C82.4059 93.31 83.3299 92.694 84.2759 92.694C85.3539 92.694 85.9479 93.332 85.9479 94.982H82.3839Z" fill="#113558"/>
<path d="M95.6932 90.296C93.1412 90.296 90.9192 91.506 90.9192 94.036C90.9192 96.83 93.0532 97.292 95.0552 97.666C96.3972 97.908 97.1892 98.04 97.1892 98.898C97.1892 99.602 96.6612 99.976 95.5392 99.976C93.9772 99.976 93.5152 99.118 93.2512 98.238L90.5452 99.118C90.9412 101.01 92.4812 102.264 95.4292 102.264C98.2452 102.264 100.467 101.01 100.467 98.392C100.467 95.686 98.4432 95.246 96.4412 94.894C95.0772 94.652 94.1092 94.476 94.1092 93.64C94.1092 92.98 94.6152 92.628 95.5612 92.628C96.7712 92.628 97.2552 93.222 97.5412 94.19L100.269 93.332C99.7192 91.418 98.2892 90.296 95.6932 90.296Z" fill="#113558"/>
<path d="M109.272 99.096C108.832 99.36 108.04 99.624 107.38 99.624C106.324 99.624 106.038 99.096 106.038 98.084V92.958H109.074V90.538H106.038V86.71L102.716 87.15V90.538H101V92.958H102.716V98.546C102.716 101.164 103.97 102.264 106.368 102.264C107.82 102.264 109.162 101.824 109.734 101.45L109.272 99.096Z" fill="#113558"/>
<path d="M114.554 90.538H111.232V102H114.554V90.538ZM114.906 87.018C114.906 85.742 114.158 85.016 112.904 85.016C111.628 85.016 110.902 85.742 110.902 87.018C110.902 88.294 111.628 89.042 112.904 89.042C114.158 89.042 114.906 88.294 114.906 87.018Z" fill="#113558"/>
<path d="M122.135 102.264C126.249 102.264 127.965 99.822 127.965 96.082C127.965 92.694 126.425 90.296 122.443 90.296C118.461 90.296 116.547 92.65 116.547 96.324C116.547 99.756 117.977 102.264 122.135 102.264ZM122.289 99.8C120.661 99.8 120.023 98.788 120.023 96.236C120.023 93.75 120.859 92.804 122.355 92.804C123.829 92.804 124.511 93.684 124.511 96.192C124.511 98.876 123.741 99.8 122.289 99.8Z" fill="#113558"/>
<path d="M140.371 94.168C140.371 91.55 139.271 90.296 136.741 90.296C135.179 90.296 133.925 90.912 133.089 91.682L132.913 90.538H129.965V102H133.287V93.882C133.727 93.486 134.629 92.98 135.531 92.98C136.565 92.98 137.049 93.508 137.049 94.74V102H140.371V94.168Z" fill="#113558"/>
<path d="M147.191 90.296C144.639 90.296 142.417 91.506 142.417 94.036C142.417 96.83 144.551 97.292 146.553 97.666C147.895 97.908 148.687 98.04 148.687 98.898C148.687 99.602 148.159 99.976 147.037 99.976C145.475 99.976 145.013 99.118 144.749 98.238L142.043 99.118C142.439 101.01 143.979 102.264 146.927 102.264C149.743 102.264 151.965 101.01 151.965 98.392C151.965 95.686 149.941 95.246 147.939 94.894C146.575 94.652 145.607 94.476 145.607 93.64C145.607 92.98 146.113 92.628 147.059 92.628C148.269 92.628 148.753 93.222 149.039 94.19L151.767 93.332C151.217 91.418 149.787 90.296 147.191 90.296Z" fill="#113558"/>
<path d="M158.667 97.666V95.664C161.549 94.982 163.243 93.332 163.243 90.56C163.243 86.996 160.691 85.852 158.007 85.852C154.597 85.852 152.617 87.59 152.265 90.384L155.499 90.89C155.763 89.306 156.467 88.602 157.831 88.602C158.953 88.602 159.745 89.13 159.745 90.516C159.745 92.87 157.501 93.464 155.367 93.64V97.666H158.667ZM158.931 100.504C158.931 99.36 158.271 98.722 156.973 98.722C155.653 98.722 155.015 99.36 155.015 100.504C155.015 101.692 155.653 102.264 156.973 102.264C158.293 102.264 158.931 101.626 158.931 100.504Z" fill="#113558"/>
</svg>
