<svg width="32" height="32" viewBox="0 0 32 32" fill="none" xmlns="http://www.w3.org/2000/svg">
<path d="M0 2.66667C3.84663 2.50406 17.9067 2.37398 26.9596 2.37398C29.7119 2.37398 31.0715 2.4065 31.6684 2.43902L32 0.292683L31.6684 0C29.7451 0.0975616 12.6674 0.195124 4.07876 0.195124H0.331606L0 2.66667Z" fill="#F2F2F2"/>
<path d="M0 29.3333C3.84663 29.4959 17.9067 29.626 26.9596 29.626C29.7119 29.626 31.0715 29.5935 31.6684 29.561L32 31.7073L31.6684 32C29.7451 31.9024 12.6674 31.8049 4.07876 31.8049H0.331606L0 29.3333Z" fill="#F2F2F2"/>
<path d="M2.66667 2.6665C2.50406 5.87203 2.37398 17.5888 2.37398 25.1328C2.37398 27.4264 2.4065 28.5594 2.43902 29.0568L0.292683 29.3332L0 29.0568C0.0975616 27.4541 0.195124 13.2226 0.195124 6.06547L0.195124 2.94284L2.66667 2.6665Z" fill="#F2F2F2"/>
<path d="M29.3333 2.6665C29.4959 5.87203 29.626 17.5888 29.626 25.1328C29.626 27.4264 29.5935 28.5594 29.561 29.0568L31.7073 29.3332L32 29.0568C31.9024 27.4541 31.8049 13.2226 31.8049 6.06547V2.94284L29.3333 2.6665Z" fill="#F2F2F2"/>
<path d="M11.7344 20.889C12.2935 20.6842 13.5024 20.5086 14.0313 20.4355L14.0918 19.9674C13.6687 19.9527 12.9584 19.8357 12.5202 19.4846C11.8251 18.9141 10.7068 17.2756 10.1024 16.1931C10.8428 15.9005 12.0669 14.9935 12.0669 13.6769C12.0669 12.3164 11.0242 11.6142 8.83301 11.6142C8.45522 11.6142 8.01699 11.6288 7.6392 11.6434C7.36719 11.6581 7.01963 11.6727 6.77785 11.6727C6.24895 11.6727 5.55382 11.6288 4.88892 11.5557L4.9947 12.0823C5.46315 12.1262 5.75027 12.214 5.99205 12.3603C6.0525 12.5797 6.09783 13.0039 6.09783 13.5598V17.8608C6.09783 18.5337 6.08272 19.5139 5.97694 19.8357C5.72005 19.9966 5.32715 20.1137 4.97958 20.1575L4.88892 20.6842C5.78049 20.611 6.5814 20.5672 7.20097 20.5672C7.92632 20.5672 8.51567 20.5672 9.21079 20.611L9.45258 20.099C8.92367 20.099 8.21344 19.9381 7.86587 19.7187C7.79032 19.3968 7.76009 18.8556 7.76009 18.3728V16.6758C7.8961 16.6905 8.01699 16.6905 8.15299 16.6905C8.33433 16.6905 8.53078 16.6758 8.72723 16.6612C9.34679 17.9193 10.4499 19.7918 11.3264 20.7573L11.7344 20.889ZM7.76009 13.238C7.76009 12.8869 7.7752 12.4627 7.83565 12.3456C8.00188 12.2725 8.27388 12.2579 8.54589 12.2579C9.37702 12.2579 10.2384 12.5797 10.2384 13.8817C10.2384 15.2129 9.37702 15.959 8.12277 15.959C8.00188 15.959 7.86587 15.959 7.76009 15.9444V13.238Z" fill="#F2F2F2"/>
<path d="M14.9766 12.1262C15.3091 12.1701 15.7927 12.2725 15.9438 12.3749C15.974 12.5066 16.0042 12.6382 16.0042 12.9308C16.0042 14.6863 15.7927 17.9632 15.6869 19.2505C15.6718 19.5285 15.6113 19.8211 15.5811 19.9235C15.3846 20.0698 15.0371 20.1722 14.7197 20.2307L14.6291 20.6257C15.1126 20.611 15.9287 20.5818 16.5029 20.5818C17.0016 20.5818 17.6211 20.5964 18.0745 20.6257L18.2407 20.2161C17.8327 20.1722 17.1678 20.0113 16.8807 19.8796C16.8505 19.7626 16.8353 19.5431 16.8353 19.3091C16.8353 18.8117 16.9411 15.6225 17.0469 13.6476L19.9936 20.889L20.9154 20.5233L23.7111 13.5598C23.7715 14.4668 23.8622 18.3143 23.8622 19.0165C23.8622 19.5724 23.832 19.7187 23.7866 19.8064C23.5902 19.9674 23.1368 20.1137 22.8346 20.1575L22.6684 20.6549C23.4391 20.611 24.4213 20.5672 25.0258 20.5672C25.5698 20.5672 26.2347 20.611 26.9449 20.6696L27.1111 20.1722C26.6427 20.099 26.0836 19.9674 25.6755 19.7918C25.6 19.6163 25.5698 19.4115 25.5395 18.9872C25.5093 18.4606 25.2675 13.516 25.2675 13.1502C25.2675 12.843 25.2978 12.5358 25.3582 12.4188C25.7209 12.2579 26.2649 12.1701 26.5671 12.1408L26.4462 11.6142C25.8418 11.6727 25.1164 11.6873 24.6631 11.6873C24.3306 11.6873 23.7715 11.6727 23.4239 11.6581L20.7341 18.3874L18.0443 11.6142C17.606 11.6434 17.2282 11.6727 16.8051 11.6727C16.2158 11.6727 15.4451 11.6434 14.8406 11.5996L14.9766 12.1262Z" fill="#F2F2F2"/>
</svg>
