<svg width="32" height="32" viewBox="0 0 32 32" fill="none" xmlns="http://www.w3.org/2000/svg">
<path d="M10.6571 12.2766C10.6571 14.5362 9.4466 15.2087 7.4022 15.2087H5.5999V9.2638H6.8642C9.2583 9.2638 10.6571 10.1784 10.6571 12.2766ZM15.7412 26.7488C15.3646 26.3991 15.0418 25.2962 14.988 24.4354C14.9611 23.9243 14.9073 23.0904 14.8804 22.2834C14.7728 18.894 13.9389 17.1186 11.2758 16.7151C13.374 16.3385 15.3915 15.4239 15.3915 12.2497C15.3915 8.2416 12.9436 6.0896 8.2361 6.0896H1V26.7488H5.5999V18.5981H7.6174C9.5273 18.5981 10.0922 19.701 10.1191 21.1536C10.146 22.1758 10.146 23.7629 10.1729 24.3816C10.2536 25.3231 10.415 26.3453 10.9799 26.7488H15.7412Z" fill="url(#paint0_linear)"/>
<path d="M31.7049 18.7488V6H27.6711C27.6711 6 26.5423 10.6812 25.8119 13.6858C25.6625 14.3166 25.4301 15.8272 25.4301 15.8272C25.4301 15.8272 25.1645 14.3166 25.0317 13.6858C24.3179 10.6978 23.2057 6 23.2057 6H19.1553V18.7488H21.7781V11.0464C21.7781 10.2496 21.7117 9.0046 21.7117 9.0046C21.7117 9.0046 21.9939 10.4488 22.1433 11.0464C22.8405 14.051 23.9361 18.7488 23.9361 18.7488H26.9241C26.9241 18.7488 28.0363 14.1008 28.7335 11.1294C28.8829 10.4986 29.1983 9.0046 29.1983 9.0046C29.1983 9.0046 29.1319 10.2994 29.1319 11.1294V18.7488H31.7049Z" fill="url(#paint1_linear)"/>
<path d="M18.7942 21.7488H31.7942V26.7488H18.7942V21.7488Z" fill="url(#paint2_linear)"/>
<defs>
<linearGradient id="paint0_linear" x1="8.3706" y1="6.0896" x2="8.3706" y2="26.7488" gradientUnits="userSpaceOnUse">
<stop stop-color="#172468"/>
<stop offset="1" stop-color="#0D2754"/>
</linearGradient>
<linearGradient id="paint1_linear" x1="25.4301" y1="6" x2="25.4301" y2="18.7488" gradientUnits="userSpaceOnUse">
<stop stop-color="#172468"/>
<stop offset="1" stop-color="#0D2754"/>
</linearGradient>
<linearGradient id="paint2_linear" x1="25.2942" y1="21.7488" x2="25.2942" y2="26.7488" gradientUnits="userSpaceOnUse">
<stop stop-color="#172468"/>
<stop offset="1" stop-color="#0D2754"/>
</linearGradient>
</defs>
</svg>
