<svg width="48" height="48" viewBox="0 0 48 48" fill="none" xmlns="http://www.w3.org/2000/svg">
<path d="M0 4C5.76995 3.7561 26.8601 3.56098 40.4394 3.56098C44.5679 3.56098 46.6073 3.60976 47.5026 3.65854L48 0.439024L47.5026 0C44.6176 0.146342 19.001 0.292685 6.11814 0.292685H0.497409L0 4Z" fill="#113558"/>
<path d="M0 44C5.76995 44.2439 26.8601 44.439 40.4394 44.439C44.5679 44.439 46.6073 44.3902 47.5026 44.3415L48 47.561L47.5026 48C44.6176 47.8537 19.001 47.7073 6.11814 47.7073H0.497409L0 44Z" fill="#113558"/>
<path d="M4 4C3.7561 8.80829 3.56098 26.3834 3.56098 37.6995C3.56098 41.1399 3.60976 42.8394 3.65854 43.5855L0.439024 44L0 43.5855C0.146342 41.1813 0.292685 19.8342 0.292685 9.09845L0.292685 4.41451L4 4Z" fill="#113558"/>
<path d="M44 4C44.2439 8.80829 44.439 26.3834 44.439 37.6995C44.439 41.1399 44.3902 42.8394 44.3415 43.5855L47.561 44L48 43.5855C47.8537 41.1813 47.7073 19.8342 47.7073 9.09845V4.41451L44 4Z" fill="#113558"/>
<path d="M17.6016 31.3335C18.4403 31.0263 20.2537 30.763 21.047 30.6532L21.1377 29.9511C20.503 29.9291 19.4376 29.7536 18.7803 29.2269C17.7376 28.3711 16.0602 25.9134 15.1536 24.2896C16.2642 23.8507 18.1003 22.4902 18.1003 20.5153C18.1003 18.4746 16.5363 17.4213 13.2495 17.4213C12.6828 17.4213 12.0255 17.4432 11.4588 17.4652C11.0508 17.4871 10.5294 17.509 10.1668 17.509C9.37342 17.509 8.33073 17.4432 7.33337 17.3335L7.49204 18.1235C8.19473 18.1893 8.6254 18.321 8.98808 18.5404C9.07875 18.8695 9.14675 19.5059 9.14675 20.3398V26.7912C9.14675 27.8006 9.12408 29.2708 8.96541 29.7536C8.58007 29.9949 7.99072 30.1705 7.46938 30.2363L7.33337 31.0263C8.67074 30.9166 9.8721 30.8507 10.8015 30.8507C11.8895 30.8507 12.7735 30.8507 13.8162 30.9166L14.1789 30.1485C13.3855 30.1485 12.3202 29.9072 11.7988 29.578C11.6855 29.0953 11.6401 28.2833 11.6401 27.5592V25.0137C11.8441 25.0357 12.0255 25.0357 12.2295 25.0357C12.5015 25.0357 12.7962 25.0137 13.0908 24.9918C14.0202 26.879 15.6749 29.6877 16.9896 31.136L17.6016 31.3335ZM11.6401 19.857C11.6401 19.3304 11.6628 18.694 11.7535 18.5184C12.0028 18.4087 12.4108 18.3868 12.8188 18.3868C14.0655 18.3868 15.3576 18.8695 15.3576 20.8225C15.3576 22.8194 14.0655 23.9385 12.1842 23.9385C12.0028 23.9385 11.7988 23.9385 11.6401 23.9166V19.857Z" fill="#113558"/>
<path d="M22.465 18.1893C22.9636 18.2551 23.689 18.4087 23.9157 18.5623C23.961 18.7598 24.0063 18.9573 24.0063 19.3962C24.0063 22.0294 23.689 26.9448 23.5303 28.8758C23.5076 29.2927 23.417 29.7316 23.3716 29.8852C23.077 30.1047 22.5556 30.2583 22.0796 30.346L21.9436 30.9385C22.669 30.9166 23.893 30.8727 24.7543 30.8727C25.5024 30.8727 26.4317 30.8946 27.1117 30.9385L27.3611 30.3241C26.7491 30.2583 25.7517 30.0169 25.321 29.8194C25.2757 29.6438 25.253 29.3147 25.253 28.9636C25.253 28.2175 25.4117 23.4338 25.5704 20.4714L29.9905 31.3335L31.3732 30.7849L35.5666 20.3398C35.6573 21.7003 35.7933 27.4714 35.7933 28.5247C35.7933 29.3586 35.7479 29.578 35.6799 29.7097C35.3853 29.9511 34.7052 30.1705 34.2519 30.2363L34.0026 30.9824C35.1586 30.9166 36.6319 30.8507 37.5386 30.8507C38.3547 30.8507 39.352 30.9166 40.4174 31.0043L40.6667 30.2583C39.964 30.1485 39.1253 29.9511 38.5133 29.6877C38.4 29.4244 38.3547 29.1172 38.3093 28.4808C38.264 27.6909 37.9013 20.2739 37.9013 19.7253C37.9013 19.2645 37.9466 18.8037 38.0373 18.6282C38.5813 18.3868 39.3973 18.2551 39.8507 18.2112L39.6693 17.4213C38.7627 17.509 37.6746 17.531 36.9946 17.531C36.4959 17.531 35.6573 17.509 35.1359 17.4871L31.1012 27.5811L27.0664 17.4213C26.409 17.4652 25.8424 17.509 25.2077 17.509C24.3237 17.509 23.1676 17.4652 22.261 17.3993L22.465 18.1893Z" fill="#113558"/>
</svg>
