<svg width="24" height="24" viewBox="0 0 24 24" fill="none" xmlns="http://www.w3.org/2000/svg">
<rect x="0.73999" y="0.75" width="22.5" height="22.5" rx="1" fill="#D7EFEE"/>
<path fill-rule="evenodd" clip-rule="evenodd" d="M8.55998 18.36H3.91998L6.19998 15.27L8.55998 18.36Z" fill="#1A1D1C"/>
<path fill-rule="evenodd" clip-rule="evenodd" d="M12.75 14.4099L8.87998 5.63989H4.16998V5.99989C7.43998 9.94989 6.41998 8.27989 11 18.3599H11.48L15.48 5.63989H19.81V5.99989L18.5 7.20989C18.3929 7.29226 18.3393 7.42642 18.36 7.55989V16.4299C18.3393 16.5634 18.3929 16.6975 18.5 16.7799L19.82 18.3499H13.67L14.81 16.7499C14.94 16.6199 14.94 16.5899 14.94 16.3999V7.59989" fill="#1A1D1C"/>
<path d="M6.20001 16.27V7.47998" stroke="#1A1D1C" stroke-width="1.5" stroke-linecap="round" stroke-linejoin="round"/>
</svg>
