<?xml version="1.0" encoding="UTF-8"?><svg version="1.1" viewBox="0 0 24 24" xmlns="http://www.w3.org/2000/svg" xmlns:xlink="http://www.w3.org/1999/xlink"><!--Generated by IJSVG (https://github.com/iconjar/IJSVG)--><g stroke-linecap="round" stroke-width="1.5" stroke="#113558" fill="none" stroke-linejoin="round"><path d="M17.36,14l-2.05116e-07,1.77477e-05c0.0176563,-1.52797 0.818059,-2.94001 2.11998,-3.74001l-5.82621e-08,-8.28167e-08c-0.826545,-1.17489 -2.1545,-1.89621 -3.59,-1.95c-1.53,-0.15 -3,0.9 -3.76,0.9c-0.76,0 -2,-0.88 -3.24,-0.86l2.68331e-07,-7.13234e-09c-1.6955,0.045067 -3.24194,0.979771 -4.07,2.46c-1.73,3 -0.44,7.46 1.25,9.9c0.82,1.19 1.81,2.53 3.1,2.48c1.29,-0.05 1.72,-0.8 3.22,-0.8c1.5,0 1.93,0.8 3.24,0.78c1.31,-0.02 2.19,-1.22 3,-2.41l2.13701e-07,-3.0995e-07c0.586004,-0.849933 1.04735,-1.77936 1.37001,-2.76001l-8.35255e-08,-3.55587e-08c-1.60316,-0.682503 -2.64273,-2.25761 -2.64,-4Z"></path><path d="M15.31,4.36l1.93461e-07,-2.28645e-07c0.844219,-0.997755 1.2642,-2.28641 1.17,-3.59l-3.46846e-07,3.24165e-08c-1.28095,0.119719 -2.46647,0.728593 -3.31,1.7l1.25188e-07,-1.41312e-07c-0.856641,0.966973 -1.27951,2.2428 -1.17,3.53l1.19115e-08,-2.78337e-11c1.29813,-0.00303335 2.52118,-0.609015 3.31,-1.64Z"></path></g></svg>