<svg width="1386" height="53" viewBox="0 0 1386 53" fill="none" xmlns="http://www.w3.org/2000/svg">
<path d="M1385.55 0.549316H0.260742V6.82258H1385.55V0.549316Z" fill="white" fill-opacity="0.2"/>
<path fill-rule="evenodd" clip-rule="evenodd" d="M21.1997 24.074H32.3997V50.7354H21.1997V24.074ZM35.5997 24.074H46.7997V50.7354H35.5997V24.074ZM113.2 35.9456V28.779H118.8V47.5988H113.2V41.2173L99.9197 48.1179V41.8741L88.3997 48.1473V28.2321L99.9197 34.4897V28.1825L113.2 35.9456ZM151.87 32.7625L160.4 23.5859V51.1954L151.886 42.0156H147.6V32.7625H151.87ZM168.4 37.389C168.4 40.216 166.201 42.6398 163.025 43.5522L162 43.8467V30.9314L163.025 31.2259C166.194 32.1363 168.4 34.5726 168.4 37.389ZM162.611 46.5387C167.235 45.4395 170.384 41.8287 170.384 37.4047C170.384 32.9672 167.237 29.3548 162.611 28.255L162 28.1097V23.9129L162.947 24.0875C169.783 25.3469 174.8 30.8983 174.8 37.4047C174.8 43.8952 169.784 49.4456 162.949 50.7216L162 50.8989V46.6841L162.611 46.5387Z" fill="white" stroke="black" stroke-opacity="0.15"/>
<path fill-rule="evenodd" clip-rule="evenodd" d="M1244.41 40.3063C1244.14 41.297 1243.73 42.2433 1243.21 43.1246L1246.03 45.8895L1241.84 49.9939L1239.02 47.2294C1238.12 47.748 1237.16 48.1401 1236.16 48.3959V52.3039H1230.24V48.3962C1229.23 48.1394 1228.27 47.7461 1227.36 47.229L1224.54 49.9939L1220.36 45.8895L1223.18 43.1246C1222.65 42.2433 1222.25 41.297 1221.98 40.3063H1218V34.5035H1221.97C1222.23 33.5165 1222.63 32.5701 1223.16 31.6852L1220.36 28.936L1224.54 24.8315L1227.35 27.5807C1228.25 27.0635 1229.22 26.6675 1230.24 26.4022V22.5059H1236.16V26.4038C1237.17 26.6695 1238.14 27.0655 1239.04 27.5807L1241.84 24.8315L1246.03 28.936L1243.22 31.6852C1243.75 32.5701 1244.15 33.5165 1244.41 34.5035H1248.4V40.3063H1244.41ZM1233.2 42.9724C1236.33 42.9724 1238.88 40.4691 1238.88 37.4049C1238.88 34.3306 1236.33 31.8373 1233.2 31.8373C1230.06 31.8373 1227.52 34.3249 1227.52 37.4049C1227.52 40.4749 1230.06 42.9724 1233.2 42.9724ZM1274 25.6425H1307.6V49.1672H1274V25.6425ZM1280.4 42.894H1301.2V31.9158H1280.4V42.894ZM1336.4 30.3474V35.0524H1330V24.0742H1341.2V30.3474H1336.4ZM1360.4 30.3474H1355.6V24.0742H1366.8V35.0524H1360.4V30.3474ZM1360.4 44.4623V39.7573H1366.8V50.7356H1355.6V44.4623H1360.4ZM1336.4 44.4623H1341.2V50.7356H1330V39.7573H1336.4V44.4623Z" fill="white" stroke="black" stroke-opacity="0.15"/>
</svg>
