<svg width="222" height="25" viewBox="0 0 222 25" xmlns="http://www.w3.org/2000/svg"><title>Group</title><g id="Page-1" fill="none" fill-rule="evenodd"><g id="about-wide" transform="translate(-610 -5137)"><g id="Group" transform="translate(609 5137)"><g id="footer/handcrafted"><text id="Handcrafted" font-family=".AppleSystemUIFont" font-size="14" fill="#1D3461"><tspan x="0" y="18">Handcrafted</tspan></text><text id="Rolando-Mathias" font-family=".AppleSystemUIFont" font-size="14" fill="#1D3461"><tspan x="116" y="18">Rolando Mathias</tspan></text><g id="icon/handcrafted" transform="translate(84)"><g id="Design-icon" fill-rule="nonzero"><path id="Rectangle-path" fill="#42A5F5" transform="rotate(-45 12.5 12.5)" d="M8.523-1.2h7.955v27.4H8.523z"/><g id="Group" transform="translate(5.625 1.875)" fill="#1565C0"><path id="Rectangle-path" transform="rotate(-135 2.95 3.888)" d="M2.325 1.899h1.25v3.978h-1.25z"/><path id="Rectangle-path" transform="rotate(45 12.363 12.05)" d="M11.738 10.945h1.251v2.21h-1.251z"/><path id="Rectangle-path" transform="rotate(45 1.719 1.406)" d="M1.094.301h1.25v2.21h-1.25z"/><path id="Rectangle-path" transform="rotate(45 16.131 15.819)" d="M15.506 14.714h1.25v2.21h-1.25z"/><path id="Rectangle-path" transform="rotate(45 5.469 5.156)" d="M4.844 4.051h1.25v2.21h-1.25z"/><path id="Rectangle-path" transform="rotate(-44.992 13.613 14.552)" d="M11.623 13.927h3.978v1.25h-3.978z"/></g><path d="M24.114 3.167L21.832.886a.891.891 0 0 0-1.259 0L19.5 1.96l3.54 3.54 1.074-1.074a.892.892 0 0 0 0-1.26" id="Shape" fill="#E57373"/><path id="Rectangle-path" fill="#FF9800" transform="rotate(-45 11.543 13.456)" d="M.291 10.952h22.504v5.007H.291z"/><path id="Rectangle-path" fill="#B0BEC5" transform="rotate(134.98 20.383 4.616)" d="M19.131 2.112h2.504V7.12h-2.504z"/><path id="Shape" fill="#FFC107" d="M1.816 19.643L.625 24.375l4.732-1.191z"/><path id="Shape" fill="#37474F" d="M1.228 21.983l-.603 2.392 2.392-.603z"/></g></g></g></g></g></g></svg>